#!OML:ASF H:\Terrain\Patient Classification 1\Animal2\Wednesday\Animal2.ASF
:FULLY-SPECIFIED
:DEGREES
3274
root 15.4212 16.3401 -20.8246 -1.19662 -15.5075 3.49457
lowerback 1.09731 -3.23279 2.62019
upperback -3.02003 -4.14638 3.14024
thorax -3.6798 -2.09654 1.9503
lowerneck 17.7127 14.9663 17.4286
upperneck -18.6065 20.7072 -25.9624
head -3.47644 11.6047 -12.1389
rclavicle 6.92765e-014 -3.18055e-014
rhumerus -37.4085 -2.78156 -77.4492
rradius 131.239
rwrist 2.04792
rhand 35.0843 23.4074
rfingers 7.12502
rthumb 58.2106 7.87648
lclavicle 6.92765e-014 -3.18055e-014
lhumerus -38.9869 15.326 66.5337
lradius 136.103
lwrist 48.2231
lhand -13.569 26.5846
lfingers 7.12502
lthumb 12.5446 -663.812
rfemur 2.10639 11.0643 5.37525
rtibia 34.5812
rfoot -35.5974 -12.8264
rtoes -22.3182
lfemur -17.512 2.13635 -3.12465
ltibia 37.6347
lfoot -20.5622 -5.36321
ltoes -37.3307
3275
root 15.4237 16.347 -20.8131 -1.02476 -15.4499 3.44882
lowerback 0.99799 -3.1521 2.73513
upperback -3.07507 -4.03752 3.15522
thorax -3.68928 -2.04573 1.89357
lowerneck 17.8337 14.8703 17.4496
upperneck -18.7257 20.5732 -26.0417
head -3.54811 11.5502 -12.2078
rclavicle 1.5704e-014 -3.18055e-015
rhumerus -37.6983 -2.69553 -77.5276
rradius 130.827
rwrist 1.51452
rhand 34.2724 23.0198
rfingers 7.12502
rthumb 57.5015 6.8594
lclavicle 1.5704e-014 -3.18055e-015
lhumerus -39.5496 14.5401 67.1616
lradius 135.525
lwrist 47.6913
lhand -13.25 26.1827
lfingers 7.12502
lthumb 12.8522 -664.233
rfemur 2.15845 11.0439 5.40703
rtibia 34.3263
rfoot -35.6227 -12.7539
rtoes -22.6354
lfemur -17.6245 2.15422 -3.10697
ltibia 37.569
lfoot -20.7226 -5.31078
ltoes -37.6774
3276
root 15.429 16.3521 -20.8 -0.929567 -15.3664 3.55035
lowerback 0.991577 -3.0984 2.71353
upperback -3.11796 -3.96597 3.12634
thorax -3.73136 -2.01011 1.87425
lowerneck 17.7069 14.8239 17.5981
upperneck -18.5243 20.541 -26.1676
head -3.4409 11.5348 -12.2358
rclavicle -4.96962e-014 -2.70347e-014
rhumerus -38.0167 -2.42968 -77.7389
rradius 130.391
rwrist 0.447315
rhand 33.1351 22.5229
rfingers 7.12502
rthumb 56.5013 5.52879
lclavicle -4.96962e-014 -2.70347e-014
lhumerus -40.1914 13.8272 67.7951
lradius 134.935
lwrist 47.2456
lhand -13.2453 25.7294
lfingers 7.12502
lthumb 12.8567 -664.687
rfemur 2.20183 10.8687 5.22216
rtibia 34.0932
rfoot -35.6063 -12.8152
rtoes -23.5287
lfemur -17.6996 2.11147 -3.27734
ltibia 37.5557
lfoot -20.8523 -5.27425
ltoes -37.8959
3277
root 15.4364 16.3546 -20.7892 -0.807821 -15.2136 3.72811
lowerback 1.12322 -3.06172 2.68383
upperback -3.28812 -3.9092 3.00114
thorax -3.98981 -1.9837 1.77549
lowerneck 17.7091 14.7165 17.9507
upperneck -18.3017 20.4971 -26.3039
head -3.32716 11.5088 -12.3093
rclavicle 2.61402e-014 3.49861e-014
rhumerus -38.4792 -2.24535 -78.0811
rradius 130.042
rwrist -0.896395
rhand 31.8506 21.8757
rfingers 7.12502
rthumb 55.3626 4.00261
lclavicle 2.61402e-014 3.49861e-014
lhumerus -41.0157 12.9543 68.3359
lradius 134.26
lwrist 46.8928
lhand -13.1061 24.7575
lfingers 7.12502
lthumb 12.991 -665.667
rfemur 2.13282 10.62 4.94581
rtibia 33.9094
rfoot -35.3417 -13.3844
rtoes -24.6874
lfemur -17.8948 1.98341 -3.53681
ltibia 37.5992
lfoot -21.0038 -5.1074
ltoes -38.0738
3278
root 15.4455 16.3548 -20.7821 -0.648337 -15.0728 3.84412
lowerback 1.1088 -3.0226 2.75376
upperback -3.31503 -3.85868 2.85759
thorax -4.02453 -1.96308 1.58695
lowerneck 17.558 14.6858 18.1541
upperneck -18.2385 20.4873 -26.3642
head -3.25354 11.4923 -12.3306
rclavicle 4.26393e-014 -2.06736e-014
rhumerus -38.7602 -2.29486 -78.3567
rradius 129.53
rwrist -1.98923
rhand 30.365 21.6375
rfingers 7.12502
rthumb 54.0348 2.82302
lclavicle 4.26393e-014 -2.06736e-014
lhumerus -41.6128 12.0629 68.9174
lradius 133.504
lwrist 46.7398
lhand -13.1185 23.9932
lfingers 7.12502
lthumb 12.979 -666.431
rfemur 2.05435 10.4796 4.76375
rtibia 33.7397
rfoot -35.0989 -13.9687
rtoes -25.7377
lfemur -18.1838 1.93912 -3.7142
ltibia 37.7277
lfoot -21.2535 -4.91038
ltoes -38.2133
3279
root 15.455 16.3566 -20.7722 -0.565191 -14.9599 3.96226
lowerback 0.904592 -2.94321 2.7666
upperback -3.078 -3.77226 2.7671
thorax -3.66963 -1.91979 1.4597
lowerneck 17.0807 14.7078 18.0663
upperneck -18.3562 20.4078 -26.4064
head -3.22879 11.4394 -12.2916
rclavicle 2.8128e-014 -3.65764e-014
rhumerus -38.4898 -2.40921 -78.3017
rradius 128.856
rwrist -2.63831
rhand 29.0154 21.616
rfingers 7.12502
rthumb 52.8196 2.01011
lclavicle 2.8128e-014 -3.65764e-014
lhumerus -41.6652 11.1362 69.8576
lradius 132.468
lwrist 46.3341
lhand -13.6247 23.1924
lfingers 7.12502
lthumb 12.4909 -667.201
rfemur 2.125 10.4531 4.60538
rtibia 33.5366
rfoot -35.1045 -14.0354
rtoes -25.1212
lfemur -18.4228 2.03338 -3.89785
ltibia 37.9805
lfoot -21.5901 -4.87804
ltoes -38.088
3280
root 15.4648 16.3537 -20.7579 -0.441708 -14.8518 3.80681
lowerback 0.780054 -2.85699 3.01614
upperback -2.87718 -3.66231 2.7981
thorax -3.40556 -1.86939 1.33307
lowerneck 16.8111 14.726 17.61
upperneck -18.867 20.2309 -26.2704
head -3.44178 11.3484 -12.2212
rclavicle 1.30701e-013 -2.22639e-014
rhumerus -38.15 -2.51205 -78.0948
rradius 128.193
rwrist -3.20613
rhand 28.0164 21.397
rfingers 7.12502
rthumb 51.9151 1.24107
lclavicle 1.30701e-013 -2.22639e-014
lhumerus -41.8931 10.1982 70.9361
lradius 131.35
lwrist 45.845
lhand -13.6507 22.1858
lfingers 7.12502
lthumb 12.4659 -668.206
rfemur 2.26836 10.4584 4.758
rtibia 33.327
rfoot -35.0785 -14.0713
rtoes -24.4069
lfemur -18.6897 2.15844 -3.76806
ltibia 38.367
lfoot -21.9971 -4.89043
ltoes -38.3416
3281
root 15.4754 16.3471 -20.7422 -0.192616 -14.7409 3.31403
lowerback 0.818549 -2.76821 3.61599
upperback -2.86568 -3.52485 2.85251
thorax -3.45014 -1.81627 1.05362
lowerneck 16.8291 14.7399 17.2504
upperneck -19.4074 20.1374 -25.9208
head -3.71209 11.2841 -12.1254
rclavicle 7.87187e-014 1.27222e-014
rhumerus -38.6381 -2.99226 -78.2242
rradius 127.32
rwrist -4.07926
rhand 26.6382 21.7725
rfingers 7.12502
rthumb 50.6608 0.90379
lclavicle 7.87187e-014 1.27222e-014
lhumerus -42.6696 9.35105 71.7279
lradius 130.531
lwrist 45.9324
lhand -13.131 22.0978
lfingers 7.12502
lthumb 12.967 -668.325
rfemur 2.35715 10.4899 5.28234
rtibia 33.1268
rfoot -35.0443 -14.2259
rtoes -25.0554
lfemur -19.0689 2.2483 -3.25266
ltibia 38.8438
lfoot -22.2929 -4.68298
ltoes -38.5046
3282
root 15.4859 16.3428 -20.7282 0.113874 -14.6484 2.8822
lowerback 0.94937 -2.64869 4.11574
upperback -2.99633 -3.33822 2.85323
thorax -3.68853 -1.7402 0.782678
lowerneck 16.6903 14.6601 17.5226
upperneck -19.2589 20.1048 -25.8283
head -3.63427 11.2368 -12.1029
rclavicle -1.33186e-014 -1.27222e-014
rhumerus -38.7204 -2.62336 -78.4145
rradius 126.636
rwrist -5.68291
rhand 24.3746 20.729
rfingers 7.12502
rthumb 48.5864 -1.20548
lclavicle -1.33186e-014 -1.27222e-014
lhumerus -43.6431 8.38607 72.4306
lradius 129.673
lwrist 46.3354
lhand -13.4495 22.5597
lfingers 7.12502
lthumb 12.6599 -667.844
rfemur 2.34273 10.4901 5.69925
rtibia 32.9451
rfoot -35.1902 -13.8342
rtoes -24.4604
lfemur -19.5658 2.42728 -2.82546
ltibia 39.3829
lfoot -22.4207 -4.29993
ltoes -37.3967
3283
root 15.4981 16.3363 -20.7149 0.318916 -14.4815 2.86253
lowerback 1.04421 -2.62622 4.1012
upperback -3.11222 -3.2962 2.90708
thorax -3.85802 -1.72076 0.853946
lowerneck 16.5486 14.5568 17.7919
upperneck -18.8967 20.0164 -26.1349
head -3.45225 11.2054 -12.1948
rclavicle 5.70512e-014 -1.74931e-014
rhumerus -39.329 -2.34274 -78.5813
rradius 125.55
rwrist -7.37253
rhand 22.1508 20.7746
rfingers 7.12502
rthumb 46.5332 -2.09459
lclavicle 5.70512e-014 -1.74931e-014
lhumerus -44.6726 7.59478 73.3447
lradius 128.468
lwrist 46.8871
lhand -13.8536 22.3338
lfingers 7.12502
lthumb 12.2703 -668.046
rfemur 2.34096 10.2649 5.5925
rtibia 32.7892
rfoot -35.4276 -13.0337
rtoes -22.9141
lfemur -20.0692 2.57517 -2.88645
ltibia 39.9492
lfoot -22.7251 -3.49754
ltoes -37.2066
3284
root 15.5125 16.327 -20.6976 0.457976 -14.2058 2.91805
lowerback 1.04241 -2.66247 3.9682
upperback -3.1113 -3.3454 3.02067
thorax -3.84204 -1.73942 1.04664
lowerneck 16.6122 14.5771 17.5169
upperneck -19.1277 19.9439 -26.2579
head -3.56066 11.2006 -12.2358
rclavicle -1.48095e-014 3.65764e-014
rhumerus -39.7259 -2.29311 -78.5978
rradius 124.484
rwrist -9.05091
rhand 20.517 20.9603
rfingers 7.12502
rthumb 45.0164 -2.53275
lclavicle -1.48095e-014 3.65764e-014
lhumerus -45.5875 7.09974 74.3883
lradius 127.204
lwrist 47.7414
lhand -13.8104 22.107
lfingers 7.12502
lthumb 12.3119 -668.275
rfemur 2.42433 9.94279 5.42681
rtibia 32.6628
rfoot -35.5579 -12.9032
rtoes -22.8629
lfemur -20.5304 2.68116 -3.0334
ltibia 40.5416
lfoot -23.224 -2.22429
ltoes -38.5986
3285
root 15.5263 16.318 -20.6741 0.613515 -14.0714 2.76768
lowerback 0.999939 -2.60623 4.13589
upperback -3.06261 -3.26982 3.02661
thorax -3.77612 -1.7056 0.952236
lowerneck 16.6928 14.619 17.3923
upperneck -19.4669 19.954 -26.1652
head -3.69714 11.2056 -12.2299
rclavicle 3.79679e-014 2.54444e-014
rhumerus -39.9102 -2.46173 -78.778
rradius 123.562
rwrist -10.7449
rhand 19.0155 20.502
rfingers 7.12502
rthumb 43.6169 -3.52232
lclavicle 3.79679e-014 2.54444e-014
lhumerus -46.4347 6.45819 75.3601
lradius 126.111
lwrist 48.7555
lhand -14.288 22.5696
lfingers 7.12502
lthumb 11.8514 -667.786
rfemur 2.51302 9.82862 5.53132
rtibia 32.5222
rfoot -35.5206 -13.3722
rtoes -23.597
lfemur -20.9182 2.9103 -2.93511
ltibia 41.1896
lfoot -23.818 -0.582743
ltoes -40.0981
3286
root 15.5425 16.3083 -20.6491 0.749168 -14.1608 2.66232
lowerback 1.01698 -2.50022 4.31199
upperback -3.07883 -3.12306 2.96541
thorax -3.81385 -1.63917 0.786457
lowerneck 16.9043 14.5316 17.6982
upperneck -19.5349 19.9156 -26.3156
head -3.7059 11.1936 -12.355
rclavicle -3.30976e-014 1.90833e-014
rhumerus -40.1782 -2.42541 -79.0313
rradius 122.481
rwrist -12.2669
rhand 17.1819 20.1299
rfingers 7.12502
rthumb 41.9013 -4.49315
lclavicle -3.30976e-014 1.90833e-014
lhumerus -47.4537 5.7553 76.2851
lradius 124.984
lwrist 49.758
lhand -15.1074 23.2606
lfingers 7.12502
lthumb 11.0612 -667.051
rfemur 2.50474 9.82639 5.53044
rtibia 32.316
rfoot -35.2718 -13.9212
rtoes -24.7078
lfemur -21.2277 3.22978 -2.88791
ltibia 41.8864
lfoot -24.3793 0.645325
ltoes -40.3129
3287
root 15.5641 16.2948 -20.6235 0.905525 -14.1925 2.59395
lowerback 1.11559 -2.42196 4.37768
upperback -3.15003 -3.00548 3.01389
thorax -3.94266 -1.58397 0.802101
lowerneck 17.0759 14.4712 17.7198
upperneck -19.5888 19.8439 -26.4144
head -3.75136 11.1753 -12.4247
rclavicle 2.10712e-014 3.97569e-014
rhumerus -40.4426 -2.28559 -79.0395
rradius 121.229
rwrist -13.7293
rhand 15.3765 20.2264
rfingers 7.12502
rthumb 40.2059 -4.9372
lclavicle 2.10712e-014 3.97569e-014
lhumerus -48.4795 5.26607 77.3717
lradius 123.662
lwrist 50.6884
lhand -15.562 24.0172
lfingers 7.12502
lthumb 10.6226 -666.271
rfemur 2.45959 9.73029 5.44252
rtibia 32.1154
rfoot -34.9323 -14.3857
rtoes -26.0113
lfemur -21.6148 3.60231 -2.90399
ltibia 42.6054
lfoot -24.6671 1.10305
ltoes -39.4411
